<?xml version="1.0" encoding="utf-8"?>
<!-- Generator: Adobe Illustrator 23.1.0, SVG Export Plug-In . SVG Version: 6.00 Build 0)  -->
<svg version="1.1" id="Capa_1" xmlns="http://www.w3.org/2000/svg" xmlns:xlink="http://www.w3.org/1999/xlink" x="0px" y="0px"
	 viewBox="0 0 3061.42 3061.42" style="enable-background:new 0 0 3061.42 3061.42;" xml:space="preserve">
<style type="text/css">
	.st0{font-family:'Bauhaus93';}
	.st1{font-size:288.9059px;}
	.st2{font-size:80.5604px;}
	.st3{fill:#1E1E1E;}
	.st4{fill:#1278B9;}
	.st5{fill:#FFFFFF;}
	.st6{fill:#F18A90;}
	.st7{fill:#3994A9;}
	.st8{fill:#9BC55D;}
	.st9{fill:#D093C1;}
</style>
<text transform="matrix(1 0 0 1 1180.5511 1547.2708)" class="st0 st1">TINOCODE</text>
<text transform="matrix(1 0 0 1 1414.0184 1624.6057)" class="st0 st2">It´s time to code your ideas</text>
<g>
	<path class="st3" d="M385.2,1267.36v337.66c0,0,1.34,43.6,62.5,43.26l542.67,0c0,0,47.01-7.19,45.74-49.23l0.03-331.7H385.2z"/>
	<path class="st4" d="M710.03,1763.83c-116.81-0.03-233.61,0.01-350.42-0.04c-60.79-0.03-61.63-0.94-61.63-61.94
		c-0.01-161.31-0.04-322.63-0.02-483.94c0-35.32,4.99-40.26,40.5-40.57c4.38-0.04,8.82,0.43,13.13-0.11
		c15.8-1.99,22.54,3.66,21.63,20.57c-1.25,23.29-0.35,46.7-0.34,70.06c0.04,105.11,0.06,210.22,0.17,315.33
		c0.05,47.58,26.02,76.53,73.14,76.94c175.88,1.54,351.76,2.33,527.64,2.48c42.79,0.04,73.61-32.88,73.74-76.15
		c0.38-128.47,0.7-256.94-0.13-385.4c-0.13-19.84,6.17-26.53,24.91-24.01c5.74,0.77,11.67,0.09,17.5,0.23
		c25.16,0.64,32.74,7.96,32.81,32.77c0.17,62.77,0.08,125.55,0.08,188.32c-0.01,110.22,0.01,220.44-0.07,330.66
		c-0.02,26.14-3.8,31.85-29.49,32.51c-64.91,1.65-129.86,1.92-194.79,2.26C835.59,1764.11,772.81,1763.85,710.03,1763.83z"/>
	<path class="st4" d="M708.02,1886.46c-61.29-0.01-122.57-0.24-183.86,0.14c-17.11,0.11-29.06-6.44-31.24-23.6
		c-2.3-18.07,9.01-26.92,25.86-28.05c15.99-1.07,32.15-1.54,48.12-0.5c15.64,1.02,24.09-3.15,21.15-20.34
		c-3.78-22.01,5.05-29.01,27.46-28.52c64.17,1.4,128.41,1.12,192.59,0.12c19.01-0.3,27.82,5.31,24.66,24.71
		c-3.17,19.52,4.81,26.4,24.16,24.09c12.22-1.46,24.78-0.36,37.17-0.01c22.94,0.66,36.97,10.97,34.74,27.08
		c-2.69,19.42-16.19,25.24-34.76,25.09C832.05,1886.15,770.03,1886.47,708.02,1886.46z"/>
	<rect x="385.2" y="1176.52" class="st3" width="650.93" height="84.98"/>
	<g>
		<circle class="st5" cx="424.52" cy="1216.92" r="17.85"/>
		<circle class="st5" cx="478.95" cy="1216.92" r="17.85"/>
		<circle class="st5" cx="533.38" cy="1218.42" r="17.85"/>
	</g>
	<g>
		<path class="st5" d="M683.15,1739.17c-2.14,0.31-3.58-0.91-5.05-2c-7.84-5.83-15.76-11.56-23.45-17.58
			c-6.51-5.1-6.34-8.98,0.34-14.07c7.61-5.79,15.37-11.39,22.94-17.22c3.68-2.83,7.15-3.21,10.17,0.48
			c3.05,3.72,1.12,6.92-2.01,9.46c-5.05,4.1-10.21,8.07-15.37,12.03c-2.65,2.03-2.56,3.51,0.22,5.56
			c5.72,4.23,11.22,8.77,16.74,13.26c2.2,1.79,2.42,4.28,1.32,6.67C687.89,1738.14,685.83,1739.42,683.15,1739.17z"/>
		<path class="st5" d="M741.1,1687.28c8.49,6.35,17.01,12.66,25.44,19.08c5.53,4.21,5.79,8.04,0.31,12.43
			c-8.11,6.5-16.55,12.57-24.9,18.77c-3.17,2.36-6.48,2.73-9.22-0.55c-3.06-3.66-1.64-6.84,1.7-9.43
			c4.82-3.75,9.63-7.54,14.61-11.07c3.42-2.43,3.53-4.39,0.17-6.95c-5.02-3.82-9.86-7.88-14.79-11.82
			c-3.95-3.16-4.64-6.53-0.76-10.25C736.09,1685.81,738.58,1686.1,741.1,1687.28z"/>
		<path class="st5" d="M696.99,1732.18c1.19-3.49,2.45-7.14,3.68-10.79c3.37-10.02,6.73-20.04,10.1-30.06
			c1.4-4.14,4.29-6.18,8.47-4.63c4.08,1.51,5.08,4.69,3.61,8.96c-4.1,11.93-7.95,23.95-11.97,35.92c-0.58,1.72-1.4,3.41-2.36,4.95
			c-1.61,2.6-4.21,3.33-6.94,2.42C698.64,1737.95,697.1,1735.6,696.99,1732.18z"/>
	</g>
	<g>
		<path class="st6" d="M573.59,1322.46H479c-2.27,0-4.11-1.84-4.11-4.11v-4.63c0-2.27,1.84-4.11,4.11-4.11h94.6
			c2.27,0,4.11,1.84,4.11,4.11v4.63C577.7,1320.62,575.86,1322.46,573.59,1322.46z"/>
		<path class="st6" d="M585.73,1355.4h-64.96c-2.27,0-4.11-1.84-4.11-4.11v-4.63c0-2.27,1.84-4.11,4.11-4.11h64.96
			c2.27,0,4.11,1.84,4.11,4.11v4.63C589.84,1353.56,588,1355.4,585.73,1355.4z"/>
		<path class="st6" d="M558.78,1388.33h-28.37c-2.27,0-4.11-1.84-4.11-4.11v-4.63c0-2.27,1.84-4.11,4.11-4.11h28.37
			c2.27,0,4.11,1.84,4.11,4.11v4.63C562.89,1386.49,561.05,1388.33,558.78,1388.33z"/>
		<path class="st6" d="M612.15,1421.27h-91.38c-2.27,0-4.11-1.84-4.11-4.11v-4.63c0-2.27,1.84-4.11,4.11-4.11h91.38
			c2.27,0,4.11,1.84,4.11,4.11v4.63C616.26,1419.42,614.42,1421.27,612.15,1421.27z"/>
		<path class="st7" d="M688.55,1322.46h-94.6c-2.27,0-4.11-1.84-4.11-4.11v-4.63c0-2.27,1.84-4.11,4.11-4.11h94.6
			c2.27,0,4.11,1.84,4.11,4.11v4.63C692.66,1320.62,690.82,1322.46,688.55,1322.46z"/>
		<path class="st7" d="M737.1,1355.4H603.77c-2.27,0-4.11-1.84-4.11-4.11v-4.63c0-2.27,1.84-4.11,4.11-4.11H737.1
			c2.27,0,4.11,1.84,4.11,4.11v4.63C741.22,1353.56,739.38,1355.4,737.1,1355.4z"/>
		<path class="st7" d="M641.78,1388.33h-64.96c-2.27,0-4.11-1.84-4.11-4.11v-4.63c0-2.27,1.84-4.11,4.11-4.11h64.96
			c2.27,0,4.11,1.84,4.11,4.11v4.63C645.89,1386.49,644.05,1388.33,641.78,1388.33z"/>
		<path class="st7" d="M775.66,1421.27h-33.01c-2.27,0-4.11-1.84-4.11-4.11v-4.63c0-2.27,1.84-4.11,4.11-4.11h33.01
			c2.27,0,4.11,1.84,4.11,4.11v4.63C779.77,1419.42,777.93,1421.27,775.66,1421.27z"/>
		<path class="st6" d="M722.64,1421.27h-91.38c-2.27,0-4.11-1.84-4.11-4.11v-4.63c0-2.27,1.84-4.11,4.11-4.11h91.38
			c2.27,0,4.11,1.84,4.11,4.11v4.63C726.76,1419.42,724.92,1421.27,722.64,1421.27z"/>
		<path class="st8" d="M886.87,1421.27h-91.38c-2.27,0-4.11-1.84-4.11-4.11v-4.63c0-2.27,1.84-4.11,4.11-4.11h91.38
			c2.27,0,4.11,1.84,4.11,4.11v4.63C890.98,1419.42,889.14,1421.27,886.87,1421.27z"/>
		<path class="st9" d="M626.15,1499.99h-94.6c-2.27,0-4.11-1.84-4.11-4.11v-4.63c0-2.27,1.84-4.11,4.11-4.11h94.6
			c2.27,0,4.11,1.84,4.11,4.11v4.63C630.26,1498.15,628.42,1499.99,626.15,1499.99z"/>
		<path class="st7" d="M638.29,1532.92h-64.96c-2.27,0-4.11-1.84-4.11-4.11v-4.63c0-2.27,1.84-4.11,4.11-4.11h64.96
			c2.27,0,4.11,1.84,4.11,4.11v4.63C642.4,1531.08,640.56,1532.92,638.29,1532.92z"/>
		<path class="st6" d="M611.34,1565.86h-38.01c-2.27,0-4.11-1.84-4.11-4.11v-2.66c0-2.27,1.84-4.11,4.11-4.11h38.01
			c2.27,0,4.11,1.84,4.11,4.11v2.66C615.45,1564.02,613.61,1565.86,611.34,1565.86z"/>
		<path class="st9" d="M664.71,1598.79h-91.38c-2.27,0-4.11-1.84-4.11-4.11v-4.63c0-2.27,1.84-4.11,4.11-4.11h91.38
			c2.27,0,4.11,1.84,4.11,4.11v4.63C668.82,1596.95,666.98,1598.79,664.71,1598.79z"/>
		<path class="st6" d="M741.11,1499.99h-94.6c-2.27,0-4.11-1.84-4.11-4.11v-4.63c0-2.27,1.84-4.11,4.11-4.11h94.6
			c2.27,0,4.11,1.84,4.11,4.11v4.63C745.22,1498.15,743.38,1499.99,741.11,1499.99z"/>
		<path class="st8" d="M789.66,1532.92H656.33c-2.27,0-4.11-1.84-4.11-4.11v-4.63c0-2.27,1.84-4.11,4.11-4.11h133.33
			c2.27,0,4.11,1.84,4.11,4.11v4.63C793.78,1531.08,791.94,1532.92,789.66,1532.92z"/>
		<path class="st7" d="M740.06,1565.86H629.38c-2.27,0-4.11-1.84-4.11-4.11v-4.63c0-2.27,1.84-4.11,4.11-4.11h110.68
			c2.27,0,4.11,1.84,4.11,4.11v4.63C744.18,1564.02,742.33,1565.86,740.06,1565.86z"/>
		<path class="st9" d="M828.22,1598.79h-33.01c-2.27,0-4.11-1.84-4.11-4.11v-4.63c0-2.27,1.84-4.11,4.11-4.11h33.01
			c2.27,0,4.11,1.84,4.11,4.11v4.63C832.33,1596.95,830.49,1598.79,828.22,1598.79z"/>
		<path class="st7" d="M775.21,1598.79h-91.38c-2.27,0-4.11-1.84-4.11-4.11v-4.63c0-2.27,1.84-4.11,4.11-4.11h91.38
			c2.27,0,4.11,1.84,4.11,4.11v4.63C779.32,1596.95,777.48,1598.79,775.21,1598.79z"/>
		<path class="st8" d="M939.43,1598.79h-91.38c-2.27,0-4.11-1.84-4.11-4.11v-4.63c0-2.27,1.84-4.11,4.11-4.11h91.38
			c2.27,0,4.11,1.84,4.11,4.11v4.63C943.54,1596.95,941.7,1598.79,939.43,1598.79z"/>
		<path class="st8" d="M692.83,1388.33h-33.01c-2.27,0-4.11-1.84-4.11-4.11v-4.63c0-2.27,1.84-4.11,4.11-4.11h33.01
			c2.27,0,4.11,1.84,4.11,4.11v4.63C696.95,1386.49,695.11,1388.33,692.83,1388.33z"/>
	</g>
</g>
</svg>
